<?xml version="1.0" encoding="utf-8"?>
<!-- Generator: Adobe Illustrator 24.0.2, SVG Export Plug-In . SVG Version: 6.00 Build 0)  -->
<svg version="1.0" id="Layer_1" xmlns="http://www.w3.org/2000/svg" xmlns:xlink="http://www.w3.org/1999/xlink" x="0px" y="0px"
	 viewBox="0 0 300 280" enable-background="new 0 0 300 280" xml:space="preserve">
<g>
	<path fill="#522D6D" d="M48.03,138.7l3.26-8.85l3.11,8.85H48.03z M57.56,147.61h2.99l-7.75-21.29h-2.96l-8.11,21.29h3.01l2.38-6.52
		h8.11L57.56,147.61z M71.73,143.11c0,1.74-1.41,2.66-3.81,2.66c-1.94,0-3.25-0.54-3.97-1.8l-2.87,0.5
		c1.12,2.29,3.44,3.38,6.72,3.38c4.45,0,6.77-2.46,6.77-5.08c0-3.37-3.11-4.29-6.69-5.01c-1.73-0.35-3.75-0.99-3.75-2.52
		c0-1.09,1.06-2.35,3.2-2.35c2.18,0,3.48,1.48,3.68,2.07l2.52-1.05c-1.16-2.2-3.47-3.11-5.89-3.11c-3.74,0-6.22,1.85-6.22,4.77
		c0,3.34,2.86,3.99,5.63,4.6C69.42,140.69,71.73,141.27,71.73,143.11 M80.53,126.32l-2.8,1.17v3.93h-2.57v2.26h2.57v10.4
		c-0.04,2.11-0.04,3.64,3.11,3.64c1.03,0,2.16-0.2,2.63-0.27v-2.24c-0.55,0.17-1.26,0.38-1.78,0.38c-1.16,0-1.16-0.82-1.16-2.73
		v-9.17h2.94v-2.26h-2.94V126.32z M85.93,131.42v16.19h2.71v-7.44c0-1.39-0.04-3.03,0.69-4.21c0.88-1.43,2.19-1.98,4.85-2v-2.8
		c-1.09,0.03-4,0.1-5.54,3.16v-2.9H85.93z M110.25,126.33v2.62h12.1l-12.11,15.9v2.77h15.64v-2.55h-12.36l12.05-16.08v-2.65H110.25z
		 M142.91,131.42v16.19h2.72v-9.18c0-1.2,0-2.43,1.2-3.62c0.86-0.85,1.89-1.23,3.09-1.23c1.47,0,2.99,0.68,3.47,2.22
		c0.17,0.55,0.17,1.02,0.17,2.66v9.15h2.71v-9.6c0-1.37,0-2.35-0.28-3.31c-0.78-2.67-3.25-3.7-5.32-3.7c-0.96,0-3.54,0.25-5.04,2.88
		v-2.47H142.91z M185.1,143.7c-0.57,1.11-1.64,2.11-3.74,2.11c-1.83,0-4.89-1.15-4.89-6.49c0-1.43,0.26-6.52,4.72-6.52
		c2.25,0,3.29,1.23,3.77,2.29l2.55-1.06c-1.57-2.61-4.39-3.22-6.42-3.22c-5.15,0-7.65,4.15-7.65,8.72c0,3.96,2.16,8.37,7.89,8.37
		c3.31,0,5.16-1.6,6.16-3.2L185.1,143.7z M129.79,137.84h8.58c-0.24-4.23-2.68-4.95-4.31-4.95
		C131.74,132.89,130.09,134.6,129.79,137.84 M140.61,144.51c-0.93,1.58-2.71,3.39-6.24,3.39c-4.78,0-7.53-3.25-7.53-8.69
		c0-6.08,4.01-8.41,7.43-8.41c2.97,0,5.82,1.64,6.77,5.7c0.31,1.37,0.31,2.6,0.31,3.29h-11.62c-0.07,2.7,1.06,6.12,4.89,6.06
		c1.56-0.03,2.66-0.74,3.36-1.85L140.61,144.51z M160.67,137.84h8.58c-0.24-4.23-2.68-4.95-4.31-4.95
		C162.62,132.89,160.97,134.6,160.67,137.84 M171.48,144.51c-0.92,1.58-2.71,3.39-6.24,3.39c-4.78,0-7.52-3.25-7.52-8.69
		c0-6.08,4.01-8.41,7.42-8.41c2.97,0,5.81,1.64,6.77,5.7c0.3,1.37,0.3,2.6,0.3,3.29H160.6c-0.07,2.7,1.07,6.12,4.89,6.06
		c1.56-0.03,2.66-0.74,3.35-1.85L171.48,144.51z M202.35,147.62l-2.83,0.01c0,0-0.24-1.14-0.32-2.38c-0.82,0.85-2.34,2.61-5.42,2.61
		c-3.15,0-5.48-1.87-5.48-4.6c0-0.86,0.24-1.71,0.72-2.43c0.92-1.37,2.64-2.46,7.46-2.84l2.56-0.21v-0.41c0-1.68,0-4.48-3.61-4.48
		c-2.27,0-3.04,1.11-3.31,2.1l-2.5-1.05c0.03-0.09,0.08-0.18,0.13-0.27c0.96-1.77,2.84-2.87,5.57-2.87c1.5,0,3.44,0.38,4.71,1.37
		c1.8,1.37,1.76,4.06,1.76,4.06l0.11,8.3C201.91,144.53,202,146.94,202.35,147.62 M198.63,143.15c0.41-0.89,0.45-1.27,0.45-3.63
		c-1.06,0.17-2.49,0.38-4.24,0.75c-3,0.65-3.52,1.78-3.52,2.91c0,1.3,1.03,2.39,3.04,2.39
		C196.24,145.58,197.85,144.83,198.63,143.15 M108.33,147.62l-2.83,0.01c0,0-0.24-1.14-0.32-2.38c-0.82,0.85-2.35,2.61-5.42,2.61
		c-3.15,0-5.48-1.87-5.48-4.6c0-0.86,0.24-1.71,0.72-2.43c0.93-1.37,2.65-2.46,7.47-2.84l2.56-0.21v-0.41c0-1.68,0-4.48-3.61-4.48
		c-2.27,0-3.04,1.11-3.31,2.1l-2.5-1.05c0.04-0.09,0.09-0.18,0.13-0.27c0.96-1.77,2.84-2.87,5.58-2.87c1.5,0,3.44,0.38,4.7,1.37
		c1.8,1.37,1.76,4.06,1.76,4.06l0.11,8.3C107.88,144.53,107.98,146.94,108.33,147.62 M104.61,143.15c0.41-0.89,0.44-1.27,0.44-3.63
		c-1.06,0.17-2.49,0.38-4.24,0.75c-3.01,0.65-3.52,1.78-3.52,2.91c0,1.3,1.03,2.39,3.04,2.39
		C102.22,145.58,103.83,144.83,104.61,143.15"/>
	<path fill="#F5A800" d="M244.07,139.79c0.27,0.43,0.54,0.85,0.82,1.27c-2.71,4.88-7.94,15.36-8.41,16.27
		c-0.5,0.97-1.18,2.67-2.79,2.46c-2.27-0.3-7.23-4.23-9.27-5.9c-11.06-9.04-14.47-13.09-14.11-15.78c0.37-2.86,3.33-4.45,17.19-4.64
		c-0.5,1.59-1,3.36-1.47,5.24c-2.01,0.15-5.05,0.53-6.1,0.67c-1.18,0.16-1.63,0.39-1.7,0.87c-0.07,0.54,1.19,1.86,2.42,3.06
		c0.55,0.54,2.11,2.08,3.81,3.78c-0.09,1.42,0.2,2.36,0.9,2.88c0.55,0.42,1.32,0.51,2.27,0.26c0.92,0.92,1.71,1.71,2.21,2.21
		c1.87,1.88,3.43,3.88,4.2,3.98c0.62,0.08,1.27-0.87,2.08-2.23C238.1,150.86,242.52,142.69,244.07,139.79 M230.24,127.11
		c-1.11,3.18-4.05,11.07-5.14,19.39c-0.38,2.86,0.64,4.01,3.37,2.83c2.69-1.16,7.2-4.18,10.58-7.33c3.38-3.15,4.29-6.57-0.92-7.66
		c-0.19-0.04-0.37-0.08-0.55-0.12c-1.34-0.26-2.64-0.46-3.77-0.56c-0.64,1.4-1.31,2.96-1.97,4.53c1.19-0.08,3.26-0.23,4.84-0.3
		c0.2-0.01,0.4-0.02,0.59-0.02c2.58-0.09,2.56,0.78,1.51,2.25c-1.22,1.71-8.11,6.92-11.16,7.52c-0.2,0.02-0.21-0.07-0.17-0.18
		c0.01-0.03,0.03-0.07,0.05-0.12c0,0,0-0.01,0-0.01c0.46-1.18,2.01-5.1,3.69-9.08c0.67-1.59,1.36-3.19,2.01-4.63
		c0.64-1.41,1.24-2.67,1.74-3.61c0.92-1.73,1.55-2.39,2.28-1.67c3.65,3.59,8.82,16.11,15.22,20.43c0,0,0.02,0.02,0.06,0.04
		c0.07,0.05,0.14,0.1,0.23,0.14c0.02,0.01,0.05,0.02,0.07,0.03c0.39,0.21,1.07,0.52,1.9,0.63c1.4,0.18,2.68-0.55,3.22-2.56
		c0.15-0.5,0.26-1.08,0.32-1.7c0.01-0.11,0.02-0.23,0.02-0.36c0.19-3.86-2.01-13.87-3.36-16.93c-1.4-3.15-2.79-2.21-3.52-1.29
		c-0.54,0.68-2.5,4.19-3.44,5.89c0.29,0.45,0.52,0.81,0.81,1.26c1.77-2.89,2.64-4.04,3.16-4.72c0.2-0.26,0.45-0.12,0.47,0.27
		c0.01,0.1,0.02,0.19,0.02,0.31c0.19,2.75,0.55,7.96,0.69,10.4c0.02,0.36,0.04,0.77,0.05,0.99c-0.57-0.61-1.08-1.29-1.32-1.62
		c-3.68-5.22-8.85-13.95-11.07-16.51C239.13,121.16,234.11,116,230.24,127.11"/>
</g>
</svg>
