<?xml version="1.0"?>
<svg width="275.3" height="174.5" xmlns="http://www.w3.org/2000/svg" xmlns:svg="http://www.w3.org/2000/svg">
 <g>
  <title>Layer 1</title>
  <path id="svg_1" d="m31.778126,146.25l4.200001,0.5c1.899998,0.199997 2.099998,1.800003 2.099998,2.800003l0,4.899994l-19.299999,0l0,-4.899994c0,-1 0.199999,-2.600006 2.099998,-2.800003l4.200001,-0.5l0,-4.199997l-25,0l0,4.199997l4.200001,0.5c1.9,0.199997 2.099998,1.800003 2.099998,2.800003l0,16.199997c0,1 -0.199999,2.600006 -2.099998,2.800003l-4.200001,0.5l0,4.199997l25,0l0,-4.199997l-4.200001,-0.5c-1.9,-0.199997 -2.099998,-1.800003 -2.099998,-2.800003l0,-4.899994l19.200001,0l0,4.899994c0,1 -0.200001,2.600006 -2.100002,2.800003l-4.200001,0.5l0,4.199997l25,0l0,-4.199997l-4.199997,-0.5c-1.900002,-0.199997 -2.100002,-1.800003 -2.100002,-2.800003l0,-16.199997c0,-1 0.200001,-2.600006 2.100002,-2.800003l4.199997,-0.5l0,-4.199997l-25,0l0,4.199997l0.100002,0z"/>
  <path id="svg_2" d="m198.278122,142.050003l-30.800003,0l0,4.199997l3.700012,0.399994c1.299988,0.200012 2.199997,0.700012 2.199997,2.5l0,16.5c0,1 -0.199997,2.600006 -2.100006,2.800003l-4.199997,0.5l0,4.199997l31.199997,0c11.199997,0 20.400009,-4.5 20.400009,-15.599991s-9.200012,-15.5 -20.400009,-15.5m-2.300003,25.199997l-10.5,0l0,-19.199997l10.5,0c6.199997,0 8.300003,2.899994 8.300003,9.599991c0,6.600006 -2.099991,9.600006 -8.300003,9.600006"/>
  <path id="svg_3" d="m271.078125,168.550003c-2,-0.199997 -2.600006,-1.5 -3.200012,-2.400009l-14.399994,-22c-1,-1.599991 -1.799988,-2.099991 -3.299988,-2.099991l-23.600006,0l0,4.199997l5.699997,0.600006c0.800003,0.099991 1.900009,1.199997 1,2.599991l-10.699997,17.300003c-0.399994,0.699997 -1,1.5 -2.199997,1.699997l-4.199997,0.5l0,4.199997l19.899994,0l0,-4.199997l-3.399994,-0.300003c-1.5,-0.199997 -2.300003,-1.199997 -1.5,-2.399994l1.599991,-2.600006l19.199997,0l1.399994,2.100006c1.300018,1.899994 -0.299988,2.699997 -1.699982,2.800003l-3.5,0.399994l0,4.199997l27,0l0,-4.199997l-4.100006,-0.399994zm-35,-10.400009l5.899994,-9.600006l6.300018,9.600006l-12.200012,0z"/>
  <path id="svg_4" d="m145.178131,146.25l4.199997,0.5c1.900009,0.199997 2.100006,1.800003 2.100006,2.800003l0,15.599991l-16.5,-21.799988c-0.699997,-1 -1.399994,-1.300003 -3.199997,-1.300003l-21.400002,0l0,4.199997l4.199997,0.5c1.900002,0.199997 2.099998,1.800003 2.099998,2.800003l0,16.199997c0,1 -0.199997,2.600006 -2.099998,2.800003l-4.199997,0.5l0,4.199997l19.999992,0l0,-4.199997l-4.199997,-0.5c-1.899994,-0.199997 -2.099991,-1.800003 -2.099991,-2.800003l0,-15.600006l16.5,21.700012c0.799988,1 1.399994,1.299988 3.199997,1.299988l0.199997,0l15,0l0,-23.699997c0,-1 0.199997,-2.599991 2.100006,-2.800003l4.199997,-0.5l0,-4.199997l-19.900009,0l-0.199997,4.300003l0,0z"/>
  <path fill="black" id="svg_5" d="m83.478127,140.949997c-20.300003,0 -25.5,8.900009 -25.5,16.600006s5.199997,16.699997 25.5,16.699997c20.299995,0 25.5,-8.899994 25.5,-16.600006c0,-7.799988 -5.200005,-16.699997 -25.5,-16.699997m0,27.400009c-7.900002,0 -11.099998,-3.300003 -11.099998,-10.699997c0,-7.399994 3.299995,-10.699997 11.099998,-10.699997c7.900002,0 11.099998,3.300003 11.099998,10.699997c0,7.399994 -3.199997,10.699997 -11.099998,10.699997"/>
  <path fill="black" id="svg_6" d="m172.178131,10.549999c-3.399994,15.299999 -4.800003,22.400002 -7.599991,33.400002c-2.700012,10.600002 -4.800003,20.499996 -8.400009,25.299999c-3.599991,4.900002 -8.5,5.900002 -11.800003,6.300003c-1.699997,0.199997 -3,0.299995 -6.699997,0.299995c-3.699997,0 -5,-0.099998 -6.699997,-0.299995c-3.300003,-0.400002 -8.199997,-1.400002 -11.800003,-6.300003c-3.599991,-4.800003 -5.699997,-14.699997 -8.299995,-25.299999c-2.800003,-11.100002 -4.199997,-18.100002 -7.599998,-33.400002c0,0 -3.400002,0.1 -4.900002,0.200001c-2.099998,0.1 -3.699997,0.299999 -5.400002,0.5c0,0 2,31.5 2.900002,44.900002c0.900002,14 2.599998,37.699997 4.099998,55.599998c0,0 2.900002,0.5 7.700005,0.699997c5,0.300003 7.299995,0.300003 7.299995,0.300003c2.100006,-7.900002 4.600006,-18.800003 7.5,-23.5c2.399994,-3.800003 6,-4.199997 8.100006,-4.5c3.199997,-0.400002 6,-0.5 7.199997,-0.5l0,0l0,0c1.300003,0 4,0 7.199997,0.5c2.100006,0.300003 5.699997,0.699997 8.100006,4.5c2.899994,4.699997 5.5,15.599998 7.5,23.5c0,0 2.199997,0 7.199997,-0.300003c4.800003,-0.299995 7.699997,-0.699997 7.699997,-0.699997c1.5,-17.900002 3.199997,-41.5 4.100006,-55.599998c0.899994,-13.300003 2.899994,-44.900002 2.899994,-44.900002c-1.699997,-0.200001 -3.399994,-0.4 -5.399994,-0.5c-1.500015,-0.1 -4.900009,-0.200001 -4.900009,-0.200001"/>
  <path fill="black" id="svg_7" d="m211.878128,29.150002c-2,-20.000002 -15.400009,-24.200001 -27.100006,-26.200002c-5.899994,-1 -16.399994,-1.8 -23.099991,-2.099999c-5.900009,-0.400001 -19.700012,-0.6 -23.900009,-0.6s-18,0.2 -23.899994,0.6c-6.700005,0.299999 -17.200005,1.099999 -23.100006,2.099999c-11.699997,2.000001 -25.099998,6.2 -27.099998,26.200002c-0.599998,5.5 -0.699997,12.599998 -0.599998,20.199997c0.199997,12.700005 1.300003,21.200005 1.900002,27.200005c0.400002,4.099998 2.099998,16.299995 4.299995,22.599998c3,8.699997 5.700005,11.199997 8.900002,13.799995c5.800003,4.699997 15.400002,6.199997 17.400002,6.600006c10.800003,1.899994 32.600006,2.300003 42.300003,2.300003c9.599991,0 31.5,-0.300003 42.300003,-2.300003c2,-0.400009 11.599991,-1.800003 17.399994,-6.600006c3.199997,-2.599998 5.899994,-5.099998 8.899994,-13.799995c2.200012,-6.300003 3.900009,-18.599998 4.300003,-22.599998c0.600006,-5.900002 1.699997,-14.5 1.900009,-27.200005c-0.100006,-7.699997 -0.300003,-14.799999 -0.800003,-20.199997m-7.400009,33.599998c-1.199997,16 -2.600006,25.599998 -4.600006,32.5c-1.800003,6.099998 -4,10.099998 -7.199997,13c-5.399994,4.900002 -12.800003,5.900002 -17.199997,6.599998c-9.400009,1.400002 -25.300003,1.900002 -37.699997,1.900002c-12.5,0 -28.300011,-0.5 -37.700005,-1.900002c-4.400002,-0.699997 -11.800003,-1.699997 -17.200005,-6.599998c-3.199997,-2.900002 -5.400002,-7 -7.199997,-13c-2,-6.900002 -3.5,-16.5 -4.599998,-32.5c-0.700005,-9.599998 -0.600006,-25.200001 0.5,-33.599998c1.500008,-12.600002 7.700005,-18.900002 21.000008,-21.200001c6.199997,-1.1 14.599998,-1.900002 22.5,-2.300001c6.399994,-0.4 16.800003,-0.6 22.699997,-0.6c5.800003,-0.099998 16.300003,0.200001 22.600006,0.6c7.899994,0.4 16.300003,1.200001 22.5,2.300001c13.300003,2.4 19.5,8.699999 21.099991,21.200001c1.100006,8.299999 1.200012,23.900002 0.5,33.599998"/>
 </g>
</svg>