<?xml version="1.0" encoding="UTF-8" standalone="no"?>
<!DOCTYPE svg PUBLIC "-//W3C//DTD SVG 20010904//EN" "http://www.w3.org/TR/2001/REC-SVG-20010904/DTD/svg10.dtd">
<svg version="1.0" xmlns="http://www.w3.org/2000/svg" width="2000.000000pt" height="2000.000000pt" viewBox="0 0 2000.000000 2000.000000" preserveAspectRatio="xMidYMid meet">
<metadata>
Created by potrace 1.14, written by Peter Selinger 2001-2017
</metadata>
<g transform="translate(0.000000,2000.000000) scale(0.100000,-0.100000)" fill="#000000" stroke="none">
<path d="M0 10000 l0 -10000 10000 0 10000 0 0 10000 0 10000 -10000 0 -10000 0 0 -10000z m9716 5894 c16 -1 34 2 42 8 9 8 19 8 35 -1 22 -11 115 -9 149 4 9 4 28 -1 41 -10 17 -11 43 -15 79 -14 30 1 60 -1 67 -5 6 -4 36 -9 67 -11 30 -2 61 -9 69 -15 11 -9 19 -9 28 -2 12 10 33 5 157 -36 8 -3 17 -6 20 -7 3 -1 23 -5 45 -10 22 -4 45 -11 50 -15 10 -7 62 -18 118 -24 15 -1 33 -8 39 -14 7 -7 20 -12 29 -12 10 0 21 -5 24 -11 4 -6 14 -8 22 -5 9 4 21 1 29 -5 19 -16 164 -50 185 -44 10 4 21 -1 27 -11 5 -9 18 -17 28 -18 11 -2 32 -8 49 -15 16 -7 39 -10 51 -7 13 4 29 0 38 -9 8 -8 23 -15 34 -15 11 0 25 -7 32 -15 7 -8 19 -15 26 -15 8 0 22 -4 32 -9 57 -31 106 -49 118 -44 8 3 14 1 14 -3 0 -10 30 -24 95 -45 22 -8 55 -26 73 -41 18 -16 41 -28 51 -28 10 0 24 -7 31 -15 7 -8 23 -15 36 -15 13 0 28 -8 33 -18 9 -17 108 -56 154 -61 16 -1 69 -51 144 -134 28 -31 55 -57 60 -57 4 0 14 -13 21 -30 8 -16 20 -30 27 -30 8 0 16 -8 19 -17 3 -10 16 -30 28 -44 13 -15 41 -48 63 -75 22 -26 52 -61 68 -77 15 -16 27 -31 27 -33 0 -3 10 -15 23 -27 13 -12 36 -43 52 -69 17 -27 36 -48 43 -48 6 0 12 -9 12 -20 0 -11 4 -20 9 -20 4 0 16 -20 26 -45 9 -25 27 -58 40 -73 13 -15 34 -61 48 -102 28 -82 47 -128 97 -235 39 -82 40 -120 4 -173 -18 -26 -24 -45 -20 -64 5 -27 -7 -38 -19 -18 -3 5 -15 15 -26 20 -15 8 -21 7 -25 -4 -4 -10 13 -40 42 -78 27 -35 55 -75 63 -90 8 -16 18 -28 23 -28 4 0 8 -7 8 -15 0 -9 11 -33 24 -54 29 -46 48 -109 35 -117 -5 -3 -9 -16 -9 -29 0 -20 -5 -23 -27 -22 l-28 2 3 -75 c2 -53 7 -77 17 -83 9 -4 15 -20 15 -35 -1 -15 1 -115 3 -224 5 -194 5 -196 -17 -202 -39 -11 -91 -6 -121 10 -16 9 -45 25 -64 34 -27 14 -34 24 -36 50 -2 20 -12 41 -27 54 -14 11 -32 33 -42 48 -9 16 -31 34 -49 42 -17 8 -59 42 -92 75 -33 34 -70 72 -82 84 -47 49 -130 106 -169 116 -22 6 -49 20 -60 32 -17 19 -26 21 -77 15 -41 -4 -69 -1 -96 10 -47 18 -184 54 -190 48 -2 -2 3 -18 12 -36 22 -47 23 -53 12 -53 -5 0 -9 3 -8 7 2 4 -6 10 -17 13 -11 4 -20 11 -20 16 0 5 -7 9 -15 9 -9 0 -27 7 -40 16 -16 11 -45 16 -87 15 -35 0 -103 0 -153 0 -49 0 -119 0 -155 0 -36 0 -86 -1 -112 -1 -26 0 -50 -5 -53 -10 -3 -6 -14 -10 -24 -10 -36 0 -45 -25 -32 -85 13 -56 35 -80 64 -69 8 3 18 1 22 -5 3 -6 19 -11 34 -11 19 0 32 -8 41 -25 10 -19 19 -24 34 -19 36 12 176 8 188 -4 7 -7 20 -12 31 -12 10 0 38 -14 63 -31 25 -17 54 -29 67 -27 13 2 22 -2 22 -10 0 -10 -37 -14 -150 -17 -82 -2 -161 -7 -175 -10 -14 -3 -54 -8 -90 -11 -35 -3 -69 -9 -75 -14 -5 -4 -28 -8 -50 -9 -55 0 -114 -10 -135 -21 -10 -5 -20 -7 -23 -3 -4 3 -14 0 -22 -7 -9 -7 -30 -14 -48 -15 -18 -1 -52 -11 -76 -23 -25 -12 -50 -22 -55 -22 -22 0 -131 -58 -150 -79 -20 -22 -45 -27 -74 -12 -24 12 -69 28 -197 69 -105 34 -116 35 -250 35 -150 -1 -372 -30 -437 -57 -52 -22 -73 -20 -97 10 -20 26 -95 84 -108 84 -12 1 -74 33 -106 54 -15 10 -38 19 -52 19 -14 0 -30 6 -36 13 -6 7 -26 16 -45 20 -19 3 -37 10 -40 15 -3 5 -9 7 -14 4 -5 -3 -18 -1 -29 4 -10 6 -35 13 -55 15 -19 2 -40 7 -46 11 -13 8 -184 52 -231 60 -19 2 -63 10 -99 15 -54 9 -252 22 -297 20 -7 0 -21 0 -30 0 -10 1 -65 2 -123 4 -137 3 -135 3 -121 20 6 7 33 16 59 20 27 3 66 15 87 26 22 11 60 20 85 21 40 0 104 17 72 18 -7 1 -11 5 -8 10 3 5 38 7 78 5 156 -8 237 -7 250 3 14 11 122 10 151 -2 9 -4 25 -4 34 -1 11 5 23 -1 34 -15 20 -26 86 -51 108 -40 9 5 21 6 27 4 20 -7 79 33 82 56 2 15 12 24 31 27 49 10 62 83 15 84 -7 0 -14 7 -18 15 -3 8 -12 15 -20 15 -8 0 -30 9 -48 19 -38 23 -162 67 -228 82 -25 5 -56 12 -70 15 -14 3 -41 7 -60 10 -19 2 -57 8 -84 14 -27 5 -52 8 -54 5 -3 -3 -11 0 -17 5 -7 6 -32 9 -56 7 -24 -2 -59 0 -78 5 -24 7 -63 5 -130 -6 -121 -21 -143 -24 -211 -31 -60 -7 -185 -23 -240 -32 -30 -5 -32 -7 -15 -14 19 -7 19 -8 -2 -8 -12 -1 -30 -11 -40 -24 -10 -13 -26 -26 -36 -30 -9 -3 -20 -19 -23 -34 -6 -28 -49 -59 -59 -42 -3 4 -11 6 -18 4 -7 -2 -38 -9 -69 -15 l-58 -11 0 -40 c0 -24 -4 -38 -10 -34 -5 3 -19 1 -29 -5 -17 -8 -20 -20 -19 -63 1 -32 -6 -69 -18 -96 -18 -41 -23 -45 -102 -71 -70 -24 -88 -27 -120 -18 -20 5 -42 14 -48 19 -6 5 -13 6 -16 3 -3 -3 -22 -7 -42 -9 -20 -2 -48 -11 -63 -20 -25 -17 -26 -17 -20 6 4 13 13 51 21 84 8 33 19 76 25 95 6 19 11 60 11 92 0 31 9 97 21 148 22 96 21 124 -7 113 -13 -5 -15 -2 -9 18 5 13 9 38 9 55 1 18 6 38 12 45 7 8 17 39 25 69 7 30 16 60 21 66 4 6 12 31 17 55 5 24 23 89 40 144 36 120 43 170 21 170 -8 0 -21 -13 -28 -30 -27 -63 -38 -78 -56 -81 -25 -4 -34 -14 -38 -46 -4 -27 -18 -51 -18 -30 0 6 9 49 20 95 11 47 18 91 15 100 -4 8 1 17 9 20 9 4 16 17 16 31 0 14 4 36 10 51 5 14 14 56 20 93 6 37 15 81 20 97 5 17 17 55 27 85 9 30 16 60 15 66 -1 6 5 24 13 40 8 16 15 39 15 51 0 12 5 25 10 28 6 3 10 19 10 35 0 16 5 32 10 35 6 3 10 17 10 29 0 13 7 29 15 36 9 7 14 19 11 27 -3 7 3 22 14 33 11 11 20 28 20 39 0 10 7 24 15 31 8 7 25 30 37 51 12 22 25 39 30 39 4 0 8 6 8 13 1 18 47 67 64 67 8 0 21 6 28 13 21 19 56 37 73 37 8 0 15 5 15 10 0 6 9 10 20 10 11 0 20 5 20 10 0 6 7 10 15 10 8 0 29 9 47 20 18 11 42 20 54 20 11 0 29 7 40 15 10 8 29 15 42 15 12 0 25 7 28 15 3 8 16 14 29 13 13 -1 35 3 49 10 24 11 37 17 99 41 12 5 56 25 98 45 41 20 79 36 83 36 11 0 86 54 124 89 32 30 73 46 142 55 40 6 87 21 146 47 25 12 64 19 100 19 32 0 102 7 154 15 52 8 114 15 137 15 23 0 44 4 48 10 3 5 12 7 20 3 8 -3 23 -2 33 3 19 9 98 12 334 14 95 1 160 6 164 12 4 6 9 6 14 -2 4 -7 20 -14 36 -16z m-1544 -2739 c160 -13 193 -16 232 -24 22 -4 63 -7 89 -7 27 1 51 -2 54 -7 3 -5 17 -7 31 -6 15 2 32 0 38 -4 6 -3 53 -9 104 -12 51 -2 98 -8 104 -13 11 -9 69 -26 121 -37 30 -6 63 -19 140 -55 22 -11 99 -77 172 -147 116 -113 133 -133 138 -168 3 -22 11 -48 16 -59 7 -12 7 -22 1 -28 -6 -6 -7 -22 -3 -37 6 -22 7 -156 1 -156 -1 0 -4 -25 -7 -55 -5 -60 -6 -68 -16 -120 -3 -19 -9 -54 -11 -77 -8 -61 -17 -96 -31 -113 -8 -8 -17 -33 -20 -55 -4 -22 -14 -48 -22 -57 -14 -16 -32 -71 -37 -113 -4 -35 -64 -150 -85 -163 -12 -7 -21 -17 -21 -23 0 -6 -28 -37 -62 -71 -145 -139 -285 -196 -528 -213 -200 -15 -470 -2 -519 25 -11 5 -24 9 -28 9 -10 -3 -40 8 -74 27 -14 7 -28 11 -31 8 -3 -2 -35 11 -71 30 -36 19 -67 33 -69 30 -3 -2 -13 5 -23 16 -10 11 -22 20 -28 20 -5 0 -28 15 -51 32 -22 18 -47 37 -54 43 -29 22 -56 53 -94 105 -23 30 -46 60 -52 65 -6 6 -17 21 -25 34 -63 111 -64 114 -52 134 15 23 2 42 -33 51 -13 3 -26 14 -29 25 -4 16 4 22 44 35 26 9 54 16 62 16 13 0 33 29 25 35 -22 16 -52 22 -103 18 l-61 -5 -13 58 c-9 38 -14 133 -14 269 0 192 2 215 21 265 12 30 22 61 22 68 0 13 40 98 64 137 25 39 142 152 176 170 63 32 70 35 83 35 7 0 31 9 52 20 22 12 48 19 57 16 10 -2 34 0 55 4 35 7 140 19 236 25 21 2 41 6 44 9 3 3 9 3 14 1 4 -3 36 -8 71 -10z m-1012 -182 c-1 -20 -19 -35 -35 -29 -14 5 -15 9 -5 21 13 16 40 21 40 8z m4270 -5 c16 -10 24 -10 39 -1 10 7 21 9 24 6 3 -3 102 -7 219 -9 145 -2 235 -8 283 -19 39 -9 90 -20 115 -25 25 -5 61 -14 80 -19 19 -6 46 -11 59 -11 13 0 32 -6 40 -14 9 -8 41 -24 71 -36 30 -13 60 -28 65 -35 6 -6 22 -19 37 -29 14 -9 33 -32 42 -50 8 -17 29 -46 46 -64 16 -17 30 -38 30 -46 0 -8 4 -17 9 -21 14 -8 48 -121 60 -200 10 -63 8 -157 -5 -255 -3 -19 -6 -54 -7 -77 -2 -23 -6 -46 -10 -49 -4 -4 -7 -21 -7 -38 0 -33 -15 -98 -30 -131 -5 -11 -19 -42 -31 -70 -12 -27 -33 -69 -46 -93 -23 -38 -27 -41 -38 -26 -10 14 -29 17 -101 18 -150 0 -330 -20 -341 -37 -3 -6 8 -23 26 -38 24 -20 42 -26 65 -24 17 2 60 6 96 10 36 3 98 10 138 15 103 14 107 14 91 -6 -7 -9 -18 -25 -24 -37 -17 -33 -57 -57 -113 -66 -63 -10 -81 -23 -62 -46 7 -8 21 -15 31 -15 11 0 19 -4 19 -9 0 -13 -73 -81 -87 -81 -7 0 -13 -3 -13 -8 0 -4 -39 -27 -87 -50 -49 -24 -96 -48 -105 -53 -10 -5 -23 -9 -30 -9 -7 0 -26 -7 -42 -15 -16 -8 -34 -14 -40 -13 -11 1 -60 -9 -86 -20 -67 -26 -435 -21 -510 7 -14 5 -47 13 -75 17 -157 23 -257 60 -355 132 -30 22 -62 47 -70 55 -41 41 -80 87 -80 95 0 5 -9 17 -19 26 -11 10 -22 35 -26 56 -4 21 -15 46 -26 56 -10 9 -19 23 -19 31 0 7 -4 13 -8 13 -8 0 -42 133 -42 166 0 11 -7 29 -15 40 -8 12 -12 24 -9 27 3 3 -1 43 -10 89 -19 103 -34 326 -23 337 5 5 4 18 -2 30 -7 13 -8 21 -2 21 6 0 9 21 7 48 -2 27 3 59 11 75 8 15 11 36 8 47 -3 10 -1 21 5 25 5 3 10 14 10 24 0 52 33 86 198 208 31 22 71 53 88 67 49 40 205 84 314 88 8 0 20 4 25 8 6 4 54 6 108 6 54 -1 101 2 103 6 7 11 11 10 34 -4z m1410 -315 c-1 -27 -1 -27 -15 -9 -14 19 -12 36 6 36 5 0 9 -12 9 -27z m-2852 1 c66 -6 74 -9 87 -33 7 -15 24 -32 38 -38 16 -8 28 -26 37 -58 12 -42 11 -50 -4 -76 -13 -21 -16 -42 -12 -77 3 -26 3 -41 0 -34 -3 6 -9 12 -12 12 -9 0 -5 -190 8 -395 6 -88 13 -203 16 -255 3 -52 9 -97 13 -100 5 -3 11 -23 15 -44 4 -22 16 -58 26 -80 10 -23 21 -54 25 -70 3 -16 16 -43 29 -60 13 -17 27 -44 30 -60 4 -17 16 -42 27 -57 10 -15 22 -42 26 -61 3 -18 14 -41 24 -51 11 -10 19 -28 19 -40 0 -16 8 -9 28 28 15 28 29 50 32 50 3 0 40 -20 83 -43 62 -35 82 -51 93 -78 8 -20 28 -43 45 -52 33 -19 41 -40 43 -115 1 -40 -4 -59 -21 -80 -12 -15 -25 -41 -28 -58 -7 -29 -8 -30 -51 -23 -39 6 -47 3 -79 -25 -33 -28 -81 -40 -129 -32 -4 1 -14 -3 -21 -9 -7 -6 -20 -8 -29 -4 -16 6 -94 -14 -176 -45 -45 -18 -124 -42 -190 -59 -19 -5 -98 -8 -175 -7 -153 3 -175 5 -175 16 0 4 -17 13 -37 20 -57 18 -109 46 -145 78 -19 16 -57 34 -88 41 -30 8 -63 20 -72 28 -10 8 -54 18 -99 23 -45 4 -83 10 -86 13 -3 3 -16 0 -30 -5 -20 -7 -30 -5 -55 16 -16 14 -38 25 -48 25 -28 0 -29 29 -2 90 39 91 44 99 89 143 44 43 58 76 26 62 -10 -5 -33 -10 -51 -13 -33 -4 -142 -96 -142 -118 0 -7 -7 -17 -15 -24 -8 -7 -15 -22 -15 -34 0 -12 -5 -27 -12 -34 -17 -17 -20 -149 -4 -201 7 -24 19 -49 27 -55 9 -6 18 -19 22 -28 3 -10 15 -18 26 -18 11 0 22 -4 25 -9 3 -5 17 -9 31 -10 14 -1 33 -2 43 -3 9 0 24 -6 32 -13 41 -35 241 -62 285 -38 33 18 69 18 95 0 13 -9 41 -17 62 -17 24 0 51 -9 75 -26 32 -22 46 -25 88 -21 37 3 63 -1 100 -16 43 -19 71 -21 201 -22 131 0 155 2 171 18 26 23 151 29 211 10 38 -13 49 -12 90 1 25 9 68 16 96 16 28 0 75 9 104 20 36 14 65 18 87 14 43 -8 87 15 114 60 14 22 46 48 89 72 37 20 68 38 70 39 1 1 9 28 17 59 19 72 19 126 0 162 -8 16 -15 38 -15 49 -1 11 -7 31 -15 45 -8 14 -14 42 -15 62 0 20 -5 40 -11 44 -6 3 -8 15 -5 27 3 11 -3 37 -13 57 l-18 37 46 -16 c25 -9 57 -24 71 -33 29 -20 112 -40 155 -39 17 0 50 -6 75 -13 50 -16 149 -30 195 -28 17 0 54 -4 82 -9 29 -6 58 -7 65 -2 7 4 49 9 93 10 101 3 113 4 210 27 95 22 234 86 342 158 23 15 46 28 52 28 6 0 11 4 11 9 0 5 10 13 23 17 12 4 66 51 119 104 53 54 103 100 110 102 7 3 12 16 10 31 -1 18 5 30 18 37 11 6 20 20 20 30 0 11 9 29 20 40 11 11 20 29 20 40 0 11 4 20 9 20 9 0 22 33 25 65 1 11 8 31 15 45 13 22 27 69 35 110 1 8 5 22 8 30 11 32 27 87 38 139 l13 53 28 -29 c28 -27 30 -35 40 -158 6 -72 12 -151 14 -176 2 -26 10 -58 20 -72 12 -19 15 -38 10 -78 -3 -29 -8 -56 -11 -60 -2 -4 0 -29 5 -56 32 -162 32 -161 20 -182 -11 -16 -10 -25 0 -44 11 -22 11 -30 -4 -59 -9 -18 -18 -58 -20 -88 -3 -30 -5 -55 -6 -55 -4 0 -10 -186 -13 -365 -2 -102 -9 -219 -15 -260 -31 -193 -63 -558 -62 -701 1 -70 -3 -139 -9 -154 -6 -15 -12 -50 -15 -77 -2 -27 -9 -56 -15 -64 -7 -7 -10 -20 -7 -28 3 -7 2 -17 -3 -22 -14 -15 -39 -95 -34 -109 3 -7 1 -16 -5 -19 -18 -11 -52 -98 -45 -118 3 -10 1 -18 -5 -18 -13 0 -41 -64 -41 -95 0 -12 -9 -30 -20 -40 -11 -10 -20 -21 -20 -25 0 -4 -27 -56 -60 -115 -33 -59 -60 -111 -60 -116 0 -5 -4 -9 -10 -9 -5 0 -10 -4 -10 -10 0 -13 -53 -94 -135 -205 -25 -33 -45 -66 -45 -72 0 -7 -4 -13 -8 -13 -4 0 -19 -18 -32 -40 -14 -22 -28 -40 -32 -40 -5 0 -8 -10 -8 -23 0 -13 -14 -34 -35 -51 -19 -16 -35 -38 -35 -48 0 -10 -6 -18 -12 -18 -12 0 -58 -61 -58 -76 0 -3 -13 -19 -30 -36 -16 -16 -30 -35 -30 -43 0 -7 -18 -32 -40 -56 -22 -24 -40 -49 -40 -55 0 -7 -6 -14 -12 -17 -7 -2 -31 -31 -53 -63 -22 -33 -52 -72 -67 -88 -15 -17 -28 -35 -28 -41 0 -6 -13 -24 -30 -40 -16 -16 -30 -35 -30 -42 0 -7 -4 -13 -10 -13 -5 0 -10 -5 -10 -11 0 -14 -77 -128 -113 -166 -17 -18 -31 -42 -32 -53 -1 -19 -20 -40 -145 -167 -25 -25 -68 -60 -97 -79 -28 -19 -55 -38 -58 -44 -4 -6 -25 -20 -48 -31 -23 -12 -44 -25 -47 -29 -4 -6 -97 -69 -140 -95 -9 -6 -24 -18 -34 -28 -10 -9 -24 -17 -32 -17 -9 0 -30 -11 -48 -25 -18 -14 -37 -25 -43 -25 -5 0 -23 -13 -39 -30 -16 -16 -39 -30 -51 -30 -13 0 -32 -9 -43 -20 -11 -11 -26 -20 -33 -20 -11 0 -53 -19 -107 -49 -30 -16 -146 -69 -180 -81 -19 -8 -47 -22 -62 -32 -14 -10 -31 -18 -38 -18 -6 0 -41 -13 -77 -30 -35 -16 -70 -30 -77 -30 -6 0 -17 -5 -23 -11 -16 -16 -98 -36 -188 -44 -27 -3 -75 -8 -105 -11 -30 -4 -82 -7 -115 -8 -33 -1 -65 -5 -72 -9 -6 -4 -14 -3 -17 1 -3 5 -37 8 -75 6 -48 -1 -73 2 -81 11 -7 9 -21 10 -44 5 -24 -5 -38 -3 -48 7 -8 7 -30 15 -49 17 -19 3 -56 12 -84 21 -96 31 -112 35 -133 35 -12 0 -22 5 -22 10 0 6 -15 10 -34 10 -18 0 -39 7 -46 15 -7 8 -23 15 -35 15 -12 0 -28 6 -34 14 -6 7 -38 21 -71 30 -33 9 -62 21 -65 26 -3 5 -12 7 -20 3 -8 -3 -15 0 -15 5 0 6 -24 23 -52 38 -29 15 -66 34 -83 42 -48 25 -187 140 -320 265 -34 31 -81 70 -106 86 -24 15 -55 40 -69 55 -14 15 -51 43 -83 63 -36 22 -77 60 -110 101 -62 78 -147 198 -147 206 0 7 -62 97 -85 124 -8 9 -24 27 -35 40 -11 12 -20 26 -20 32 0 5 -11 17 -25 26 -14 9 -25 20 -25 25 0 6 -13 23 -30 39 -16 16 -30 32 -30 36 0 9 -82 106 -107 127 -13 10 -23 24 -23 31 0 7 -17 28 -38 47 -21 19 -44 46 -51 62 -8 15 -20 27 -27 27 -7 0 -21 16 -30 36 -9 20 -23 38 -31 41 -7 3 -13 11 -13 19 0 7 -6 17 -14 21 -7 4 -30 40 -51 78 -20 39 -43 77 -51 86 -8 8 -14 21 -14 27 0 7 -4 12 -10 12 -5 0 -10 6 -10 14 0 7 -11 25 -25 40 -14 15 -28 38 -31 52 -4 14 -12 28 -19 31 -7 2 -16 15 -19 28 -3 12 -22 46 -41 75 -19 29 -38 63 -41 76 -3 13 -12 28 -20 35 -8 6 -14 19 -14 29 0 9 -6 30 -14 46 -8 16 -22 47 -31 69 -9 22 -23 54 -31 70 -23 52 -82 248 -88 295 -3 25 -8 90 -11 145 -3 55 -8 114 -10 130 -3 17 -5 89 -4 160 2 256 2 400 0 430 -3 42 8 464 13 500 3 17 5 58 5 93 1 61 2 63 31 73 l30 11 1 86 c7 473 7 461 18 443 6 -9 15 8 31 55 12 38 29 76 36 85 8 8 14 22 14 31 0 8 14 43 31 79 17 35 36 93 42 129 6 37 28 103 53 155 33 71 43 105 47 160 3 45 12 83 24 105 12 19 21 55 22 80 1 28 7 47 16 53 11 6 15 25 15 71 0 39 5 69 15 82 8 10 15 30 15 43 0 13 3 21 7 17 4 -4 8 -48 9 -99 1 -51 3 -92 4 -92 2 0 8 -37 14 -90 1 -16 6 -37 10 -46 4 -9 6 -20 5 -25 -4 -17 14 -109 23 -121 7 -9 6 -13 -3 -14 -8 -1 -21 -2 -29 -3 -10 -1 -15 -12 -15 -36 0 -32 3 -35 32 -38 43 -4 62 -28 31 -37 -13 -4 -29 -12 -37 -18 -7 -6 -20 -12 -29 -13 -14 -3 -32 -21 -32 -35 0 -4 7 -12 15 -19 12 -10 30 -10 75 -3 32 5 57 6 54 2 -2 -4 4 -16 14 -26 11 -10 22 -31 26 -48 4 -16 14 -37 22 -45 17 -18 88 -109 129 -166 34 -47 105 -110 136 -119 12 -4 30 -16 40 -26 10 -10 26 -19 34 -19 8 0 15 -4 15 -9 0 -5 12 -14 28 -20 15 -6 47 -22 71 -36 24 -14 50 -25 58 -25 7 0 13 -4 13 -10 0 -5 5 -10 12 -10 6 0 35 -11 64 -25 30 -14 66 -27 81 -29 16 -2 44 -10 65 -19 25 -10 47 -13 70 -8 19 5 45 4 58 -1 31 -11 199 -14 355 -5 182 11 198 13 235 29 19 9 64 24 100 33 36 9 103 35 150 58 68 33 102 58 168 123 45 46 82 90 82 99 0 8 6 18 14 21 8 3 17 13 20 22 7 21 25 49 49 76 10 11 21 32 24 46 3 14 19 44 35 67 15 23 28 51 28 62 0 11 5 23 10 26 18 11 47 83 61 150 11 58 19 73 74 133 34 38 67 84 74 103 7 19 17 42 22 52 5 10 12 76 16 147 l6 128 31 24 c77 59 77 59 254 42z m-3738 -489 c77 -27 153 -66 172 -87 10 -12 18 -37 18 -58 0 -20 3 -73 7 -116 8 -91 20 -71 22 35 1 63 7 76 16 31 2 -12 9 -27 14 -34 13 -15 29 -154 30 -264 1 -49 25 -68 47 -37 12 16 13 16 13 -11 0 -16 5 -63 12 -104 13 -83 20 -409 8 -425 -4 -5 -9 -19 -12 -30 -4 -19 -5 -18 -6 2 0 12 -6 34 -13 50 -6 15 -10 32 -9 37 1 4 -2 13 -7 20 -5 6 -10 25 -10 42 -1 39 -30 142 -43 150 -5 3 -7 14 -4 24 3 10 1 21 -5 25 -5 3 -10 17 -10 31 0 14 -7 41 -16 62 -10 20 -17 42 -18 47 -1 15 -45 125 -62 157 -15 28 -19 68 -6 68 4 0 18 -18 32 -40 33 -53 36 -44 7 21 -14 30 -31 70 -38 89 -26 69 -89 140 -149 167 -50 23 -89 32 -95 22 -4 -5 -11 -7 -16 -3 -5 3 -23 -2 -41 -10 -17 -9 -36 -16 -42 -16 -40 0 -44 -208 -5 -258 14 -18 15 -29 8 -55 -5 -17 -6 -48 -2 -67 5 -29 4 -33 -8 -23 -9 7 -15 36 -17 74 -2 35 -6 68 -10 74 -10 14 -29 286 -20 291 4 2 4 19 1 37 -4 24 0 37 16 51 12 11 21 25 21 32 0 25 148 24 220 -1z m7210 -198 c0 -4 11 -13 25 -19 14 -6 25 -19 25 -30 0 -10 4 -18 8 -18 8 0 32 -58 32 -78 0 -7 -8 -12 -17 -12 -10 0 -30 -6 -44 -14 -14 -7 -36 -16 -50 -19 -22 -6 -99 -104 -99 -128 0 -5 -4 -17 -10 -27 -17 -29 -33 -76 -31 -89 1 -7 -3 -13 -9 -13 -5 0 -10 -13 -10 -28 0 -15 -4 -32 -9 -38 -10 -11 -57 -155 -66 -204 -4 -19 -16 -62 -27 -95 -11 -33 -22 -80 -25 -105 -3 -25 -9 -50 -14 -56 -4 -5 -11 -30 -14 -55 -3 -24 -8 -52 -11 -62 -15 -46 -30 -249 -34 -432 -1 -31 -22 -110 -38 -141 -6 -11 -15 -37 -21 -59 -12 -42 -47 -92 -58 -81 -9 8 -5 95 6 133 5 17 7 34 4 36 -2 3 0 15 6 26 7 11 13 58 16 104 2 45 6 89 9 97 4 14 10 46 21 123 2 15 6 31 9 36 3 4 8 32 11 62 8 66 11 80 18 99 3 8 10 38 16 65 5 28 17 77 26 110 10 33 19 76 20 95 1 19 10 65 20 101 19 68 15 105 -9 96 -11 -5 -11 0 1 24 8 16 12 33 9 38 -4 5 -2 12 4 16 5 3 10 16 10 29 0 12 4 26 10 32 5 5 10 33 12 61 2 29 6 53 9 53 8 0 28 86 35 153 4 32 11 60 15 63 5 3 9 22 9 43 0 69 78 119 182 117 16 -1 28 -4 28 -9z m-7320 -7 c0 -5 -9 -10 -21 -10 -11 0 -17 5 -14 10 3 6 13 10 21 10 8 0 14 -4 14 -10z m-62 -467 c-6 -27 -26 3 -21 32 6 29 6 29 15 5 5 -13 7 -30 6 -37z m506 -1047 c-9 -108 -12 -191 -6 -200 7 -13 7 -70 -1 -82 -5 -8 -2 -135 4 -184 1 -8 1 -43 1 -78 l-2 -62 -27 6 c-32 7 -55 24 -33 24 10 0 9 4 -3 18 -10 10 -17 26 -17 36 0 9 -7 19 -15 22 -8 4 -15 12 -15 19 0 8 -10 22 -22 32 -13 10 -31 35 -42 55 -10 20 -25 39 -32 42 -22 8 -17 21 21 59 l35 35 7 -26 c7 -30 20 -42 47 -42 15 0 17 5 11 28 -11 43 -12 106 -2 119 5 7 7 30 5 50 -3 21 1 49 9 63 7 14 13 37 13 52 0 15 5 30 10 33 6 3 10 17 10 31 0 13 4 24 9 24 5 0 13 10 17 23 7 21 8 21 15 -7 4 -15 6 -56 3 -90z m565 -3068 c1 -10 10 -22 21 -28 11 -6 30 -31 41 -56 22 -45 39 -60 93 -80 23 -8 33 -21 47 -63 20 -62 64 -127 99 -146 14 -7 44 -18 67 -24 31 -8 52 -23 75 -53 56 -72 132 -141 196 -182 48 -29 78 -60 127 -127 67 -91 113 -127 189 -148 26 -7 57 -29 100 -74 57 -59 70 -67 182 -110 67 -26 128 -55 137 -65 8 -9 26 -40 40 -68 30 -59 72 -98 139 -129 25 -12 63 -36 83 -53 21 -19 47 -32 63 -32 35 0 65 -21 91 -64 27 -43 67 -62 156 -74 51 -7 86 -19 130 -46 33 -19 84 -40 115 -46 30 -6 84 -21 119 -32 42 -13 78 -19 108 -15 24 2 65 -2 90 -9 53 -16 96 -8 175 32 59 30 66 30 108 -1 23 -17 47 -25 76 -25 54 0 178 31 231 58 23 12 72 26 109 31 45 7 83 20 115 40 27 16 70 33 96 37 60 8 94 25 147 73 63 57 197 148 261 176 31 14 80 47 108 74 29 27 68 56 87 66 19 10 59 40 88 66 30 27 60 49 67 49 12 0 22 11 90 95 30 37 51 28 70 -30 9 -26 34 -58 69 -90 l56 -50 0 -115 c0 -100 -3 -120 -21 -150 -19 -30 -22 -48 -20 -137 1 -86 6 -111 27 -158 24 -51 25 -61 15 -102 -9 -34 -9 -58 0 -98 10 -47 9 -63 -11 -136 -18 -64 -23 -106 -21 -179 1 -52 2 -115 3 -140 0 -25 -2 -121 -5 -215 -5 -162 -6 -173 -36 -242 -17 -40 -31 -81 -31 -92 0 -11 -16 -40 -35 -65 -39 -52 -85 -178 -85 -236 0 -32 -5 -42 -30 -60 -17 -12 -40 -40 -52 -63 -11 -23 -38 -61 -58 -83 -54 -59 -72 -98 -70 -152 3 -77 2 -80 -44 -111 -24 -17 -50 -45 -59 -63 -9 -18 -32 -49 -52 -68 -38 -36 -105 -156 -105 -188 0 -10 -10 -36 -21 -57 -12 -22 -30 -58 -41 -80 -11 -22 -26 -47 -33 -55 -15 -19 -43 -99 -59 -170 -7 -30 -16 -64 -20 -75 -28 -74 -44 -104 -68 -130 -15 -16 -28 -37 -28 -45 0 -8 -16 -26 -35 -39 -19 -13 -35 -27 -35 -32 0 -5 -60 -68 -133 -141 -74 -73 -146 -150 -162 -171 -15 -20 -34 -37 -41 -37 -8 0 -19 -9 -26 -20 -7 -11 -30 -32 -50 -47 -21 -14 -38 -32 -38 -40 0 -7 -11 -18 -24 -22 -13 -5 -47 -37 -76 -70 -29 -33 -75 -75 -102 -92 -57 -37 -58 -46 -2 -23 36 15 32 9 -48 -68 -61 -58 -105 -90 -145 -108 -59 -25 -198 -119 -288 -195 -114 -97 -161 -113 -225 -80 -41 21 -63 58 -97 160 -17 50 -44 117 -61 150 -16 33 -35 78 -42 100 -18 58 -60 138 -128 246 -33 52 -63 105 -67 119 -4 13 -17 37 -28 51 -10 15 -16 32 -13 38 8 12 -18 73 -46 110 -10 13 -18 39 -18 57 0 19 -5 34 -10 34 -6 0 -13 8 -17 18 -3 9 -15 29 -25 44 -12 17 -16 36 -13 50 4 17 0 30 -14 42 -12 11 -21 27 -21 36 0 27 -58 100 -88 111 -15 5 -36 13 -47 18 -11 5 -42 15 -70 22 -27 7 -69 23 -92 36 -23 13 -49 23 -57 23 -9 0 -16 4 -16 8 0 5 -16 17 -35 28 -19 10 -35 22 -35 26 0 3 -8 9 -18 12 -10 3 -38 24 -62 46 -24 21 -47 37 -52 34 -4 -3 -8 -1 -8 4 0 16 -37 52 -54 52 -9 0 -22 12 -28 26 -16 34 -80 104 -96 104 -6 0 -12 5 -12 11 0 17 -43 59 -61 59 -10 0 -23 16 -33 40 -9 22 -23 40 -31 40 -8 0 -15 8 -15 18 0 23 -19 42 -42 42 -11 0 -18 7 -18 20 0 11 -9 29 -20 40 -11 11 -20 25 -20 30 0 6 -4 10 -9 10 -4 0 -22 23 -39 50 -17 28 -36 50 -41 50 -5 0 -12 8 -15 18 -3 9 -16 28 -28 43 -29 32 -47 59 -54 82 -4 9 -10 17 -14 17 -4 0 -10 10 -13 23 -4 12 -25 42 -47 66 -23 24 -44 57 -47 73 -3 16 -12 32 -19 35 -6 2 -15 16 -19 30 -3 15 -15 37 -25 50 -10 13 -26 46 -36 73 -10 28 -22 50 -26 50 -4 0 -8 7 -8 16 0 9 -6 28 -14 42 -37 69 -96 203 -96 220 0 10 -4 22 -10 28 -5 5 -27 46 -49 89 -21 44 -48 88 -59 99 -11 10 -24 31 -27 47 -4 16 -11 31 -16 34 -5 4 -9 20 -9 36 0 38 -47 185 -65 203 -13 13 -38 88 -38 116 0 8 -5 22 -12 30 -7 8 -16 34 -20 58 -4 23 -11 42 -16 42 -5 0 -9 8 -9 18 0 9 -7 30 -15 46 -8 15 -13 32 -10 36 7 12 -43 171 -60 190 -8 9 -15 35 -15 58 0 22 -3 43 -7 45 -5 3 -8 37 -7 76 0 58 4 76 22 99 13 15 38 51 58 79 19 29 47 60 62 70 15 9 41 30 59 46 17 16 36 26 41 23 6 -4 20 -32 32 -64 14 -38 40 -76 76 -114 30 -32 60 -71 65 -88 6 -17 24 -37 40 -46 16 -8 46 -37 65 -64 20 -28 39 -50 43 -50 7 0 54 -179 82 -314 22 -102 21 -44 -1 75 -12 63 -23 134 -26 159 -3 25 -8 56 -11 70 -4 14 -6 28 -5 32 1 4 -5 47 -14 95 -9 48 -17 124 -19 168 -2 44 -8 105 -13 135 -5 30 -7 60 -5 67 3 7 0 20 -7 28 -6 8 -9 23 -5 34 3 11 1 29 -4 40 -8 14 -8 22 -1 26 6 4 8 15 5 24 -3 10 -8 49 -10 86 -3 38 -9 73 -14 78 -6 6 -6 19 0 35 5 14 7 33 3 41 -4 9 -8 34 -10 56 -2 22 -6 56 -9 75 -13 84 -15 153 -5 165 6 7 8 29 4 51 -7 52 -3 427 6 444 3 7 28 -71 29 -92z m-137 -680 c-9 -9 -12 -7 -12 12 0 19 3 21 12 12 9 -9 9 -15 0 -24z"/>
<path d="M8185 12925 c-85 -17 -185 -48 -185 -57 0 -4 -7 -8 -15 -8 -22 0 -74 -28 -111 -59 -17 -14 -40 -32 -52 -40 -31 -21 -61 -66 -53 -79 5 -8 23 -4 58 14 29 13 54 28 57 33 3 5 23 18 43 29 36 18 175 92 211 112 9 5 46 23 82 39 69 32 61 36 -35 16z"/>
<path d="M8581 12848 c-13 -5 -83 -11 -155 -14 -72 -4 -137 -11 -143 -16 -7 -6 -19 -8 -28 -5 -8 4 -17 2 -20 -3 -3 -5 -18 -8 -33 -8 -15 1 -37 -4 -47 -9 -11 -6 -39 -14 -62 -18 -24 -4 -45 -11 -49 -16 -3 -5 -14 -9 -24 -9 -11 0 -34 -9 -52 -20 -18 -11 -43 -20 -55 -20 -12 0 -25 -5 -28 -10 -4 -6 -23 -17 -42 -25 -20 -9 -43 -24 -50 -35 -8 -11 -20 -20 -26 -20 -21 0 -112 -93 -131 -133 -9 -21 -20 -54 -23 -73 -5 -31 -3 -35 13 -33 39 7 45 -9 22 -54 -25 -50 -33 -108 -18 -137 12 -23 25 -25 60 -7 32 17 140 0 215 -33 79 -34 298 -47 360 -21 62 27 75 30 80 20 8 -12 143 -3 161 11 8 8 14 8 19 1 7 -13 104 -11 112 2 2 4 10 4 16 -1 7 -5 49 -5 102 -1 50 5 102 6 117 3 15 -3 36 0 48 6 16 8 25 8 35 0 10 -9 70 -8 95 0 3 1 17 1 31 0 21 -1 30 6 43 31 9 18 16 33 16 34 0 11 -81 20 -209 24 l-34 1 36 35 c47 45 71 125 64 204 -8 81 -12 102 -30 143 l-15 37 46 -15 c26 -9 63 -19 82 -24 19 -5 53 -18 75 -30 21 -11 47 -20 57 -20 9 0 20 -5 23 -10 9 -15 25 -2 25 20 0 29 -47 67 -130 106 -41 19 -87 42 -102 50 -14 7 -35 14 -46 14 -12 0 -24 5 -27 10 -3 6 -19 10 -34 10 -15 0 -32 5 -38 11 -6 6 -29 12 -51 13 -22 1 -47 10 -57 20 -14 14 -27 16 -61 11 -24 -3 -45 -2 -48 4 -8 12 -53 11 -85 -1z m-121 -188 c14 -22 12 -30 -6 -30 -10 0 -14 -6 -11 -15 7 -17 -71 -88 -90 -81 -7 3 -33 -4 -59 -15 -46 -21 -91 -19 -105 3 -3 5 -3 24 0 41 5 24 16 37 46 52 22 11 42 23 43 28 2 4 15 7 28 7 13 0 24 5 24 11 0 5 3 8 8 5 4 -2 23 -1 42 3 49 10 69 8 80 -9z m-650 -130 c0 -5 -5 -10 -11 -10 -5 0 -7 5 -4 10 3 6 8 10 11 10 2 0 4 -4 4 -10z m255 -92 c0 -93 3 -108 28 -155 l27 -53 -42 -2 c-24 0 -50 0 -58 1 -8 1 -46 4 -85 7 -95 8 -101 15 -75 93 11 34 18 66 15 72 -4 5 1 9 9 9 9 0 16 4 16 9 0 18 52 71 69 71 9 0 32 11 51 25 19 13 37 24 40 25 3 0 5 -46 5 -102z"/>
<path d="M11115 12707 c-38 -4 -84 -8 -102 -10 -17 -1 -35 -6 -39 -10 -4 -4 -15 -7 -25 -7 -10 0 -38 -11 -62 -25 -25 -13 -47 -22 -49 -19 -7 7 -78 -36 -78 -47 0 -5 -6 -9 -14 -9 -17 0 -52 -46 -98 -130 -19 -36 -45 -82 -58 -102 -31 -54 -18 -47 25 12 38 51 71 71 40 23 -17 -25 -17 -27 1 -40 10 -7 24 -13 31 -13 22 0 15 -14 -32 -60 -45 -44 -48 -57 -36 -131 1 -3 12 -11 26 -17 21 -10 26 -9 35 8 5 10 10 28 10 39 0 20 56 81 76 81 5 0 24 13 40 29 17 16 43 33 59 37 25 6 27 5 20 -12 -15 -32 -18 -143 -5 -159 10 -13 8 -15 -12 -15 -14 0 -32 -8 -42 -18 -15 -17 -15 -22 -1 -55 11 -27 21 -37 38 -37 13 0 29 -6 35 -12 7 -7 27 -14 45 -15 18 -1 63 -7 101 -13 38 -7 84 -10 102 -7 19 3 36 1 39 -4 4 -5 25 -9 48 -9 23 0 83 -6 132 -14 50 -8 97 -14 105 -15 97 -4 158 -12 197 -25 165 -53 334 -51 424 4 27 16 67 48 90 70 41 39 41 41 24 60 -25 27 -43 25 -74 -8 -64 -69 -209 -98 -331 -67 -36 9 -75 19 -87 22 -32 7 -29 15 17 52 53 42 84 110 76 165 -3 23 -8 70 -10 105 -3 61 -3 63 11 38 9 -17 25 -30 44 -34 16 -3 29 -12 29 -20 0 -8 9 -17 20 -20 11 -3 20 -9 20 -14 0 -5 14 -15 30 -24 17 -9 30 -22 30 -30 0 -7 11 -22 25 -33 14 -11 25 -24 25 -29 0 -11 83 -36 107 -31 21 4 30 45 14 61 -6 6 -11 20 -11 31 0 11 -10 31 -22 44 -13 14 -17 22 -10 18 25 -14 11 10 -26 45 -31 29 -57 60 -92 108 -8 12 -176 131 -184 131 -4 0 -23 12 -42 26 -19 15 -45 28 -57 29 -36 4 -37 4 -37 18 0 6 -19 19 -43 28 -23 10 -51 20 -62 25 -11 4 -29 9 -40 11 -82 12 -101 16 -110 23 -13 10 -207 8 -300 -3z m136 -213 c9 -11 8 -19 -5 -39 -9 -13 -16 -31 -16 -39 0 -9 -11 -18 -25 -22 -14 -3 -25 -9 -25 -14 0 -12 -83 -49 -115 -51 -70 -3 -75 -1 -71 30 4 38 12 49 49 66 44 21 77 41 90 54 6 6 21 11 33 11 13 0 25 4 28 8 8 13 44 11 57 -4z"/>
<path d="M9818 11833 c-55 -83 -83 -224 -47 -231 11 -2 21 9 29 30 7 18 18 47 25 63 46 104 55 137 45 156 -15 27 -24 24 -52 -18z"/>
<path d="M9925 11848 c-18 -84 -36 -202 -31 -214 9 -24 35 -15 53 19 27 51 22 217 -7 217 -5 0 -12 -10 -15 -22z"/>
<path d="M12243 10055 c4 -8 9 -119 13 -247 3 -128 8 -239 9 -248 2 -8 4 -42 5 -75 1 -53 3 -57 13 -35 7 16 11 113 11 275 1 222 -1 255 -18 298 -10 26 -23 47 -28 47 -6 0 -8 -7 -5 -15z"/>
<path d="M7226 9933 c-2 -16 -15 -79 -26 -141 -12 -62 -20 -115 -17 -118 2 -2 16 23 31 57 29 67 53 186 43 212 -10 26 -25 20 -31 -10z"/>
<path d="M11584 9908 c8 -57 47 -135 69 -141 9 -3 17 -15 17 -26 0 -12 3 -21 8 -21 4 0 17 -15 29 -33 12 -17 36 -41 53 -52 16 -11 30 -27 30 -35 0 -9 13 -27 30 -40 16 -14 29 -35 30 -47 0 -12 5 -23 11 -25 13 -4 29 -207 18 -214 -8 -5 -18 -69 -24 -150 -2 -34 -18 -108 -35 -165 -46 -153 -46 -153 13 -38 30 59 65 122 78 140 14 19 25 39 25 44 0 6 6 24 13 40 7 17 10 42 7 56 -3 14 0 31 5 36 14 14 20 154 10 210 -5 24 -17 50 -26 57 -11 7 -15 18 -11 25 10 16 -34 81 -99 148 -76 79 -131 142 -182 211 -55 75 -79 82 -69 20z"/>
<path d="M7617 9850 c-41 -44 -78 -80 -82 -80 -17 0 -65 -61 -65 -83 0 -13 -5 -28 -11 -34 -14 -14 6 -159 26 -190 8 -12 15 -31 15 -42 0 -11 14 -40 30 -65 17 -25 44 -73 60 -108 32 -69 38 -67 16 7 -8 26 -18 72 -22 102 -3 29 -10 56 -15 59 -5 3 -9 25 -9 50 0 25 -5 54 -10 64 -6 11 -13 45 -16 77 -6 56 -5 60 32 108 21 28 42 52 46 53 4 2 8 8 8 13 0 5 20 37 45 71 25 34 45 66 45 70 0 20 -23 2 -93 -72z"/>
<path d="M8830 9540 c-8 -4 -43 -10 -78 -13 -34 -3 -68 -10 -75 -15 -7 -5 -39 -13 -71 -17 -33 -4 -71 -12 -85 -18 -14 -5 -30 -11 -36 -11 -5 -1 -27 -9 -49 -19 -21 -9 -56 -17 -77 -17 -21 0 -41 -4 -44 -10 -11 -18 -102 -11 -140 10 -45 25 -92 26 -99 3 -3 -10 -4 -33 -3 -52 2 -30 9 -38 52 -63 74 -42 74 -42 112 -30 31 10 40 8 62 -9 14 -11 26 -28 26 -37 0 -10 13 -21 32 -26 21 -7 36 -20 44 -38 7 -17 22 -31 37 -35 40 -10 89 -42 94 -61 3 -9 22 -26 44 -37 21 -11 56 -33 76 -48 26 -19 44 -26 58 -22 12 4 20 2 20 -5 0 -6 29 -24 64 -40 35 -16 68 -36 75 -44 16 -19 110 -58 126 -52 7 2 16 -2 19 -9 3 -8 24 -18 46 -21 22 -4 43 -11 46 -15 3 -5 26 -9 52 -9 26 0 56 -7 66 -15 11 -8 37 -15 57 -15 21 0 41 -4 44 -10 3 -5 23 -10 43 -10 20 0 78 -2 127 -5 50 -4 101 -6 115 -6 14 0 32 -3 40 -6 14 -6 70 -13 98 -13 6 0 18 0 25 -1 75 -5 273 -2 312 4 28 5 63 10 78 12 15 2 34 8 42 15 8 6 22 9 32 6 30 -9 146 29 220 72 37 23 88 48 113 57 25 9 54 21 65 25 11 5 35 12 53 15 17 4 32 11 32 17 0 6 7 7 15 4 9 -3 32 3 53 14 20 11 45 20 54 20 10 0 18 3 18 8 0 4 17 15 38 24 20 9 50 28 65 42 15 14 30 26 33 26 3 0 20 11 38 25 18 14 38 25 43 25 6 0 13 7 17 15 3 8 12 15 21 15 8 0 30 15 48 34 32 33 35 34 78 24 39 -9 52 -7 94 12 58 26 95 57 95 79 -1 9 -16 33 -34 55 -27 31 -36 36 -52 28 -10 -5 -38 -19 -62 -31 -47 -25 -87 -25 -117 -1 -11 9 -40 22 -65 29 -25 7 -49 17 -55 21 -14 11 -115 33 -121 27 -3 -3 -21 1 -40 9 -19 8 -34 11 -34 8 0 -4 -6 -2 -13 4 -7 6 -28 13 -47 16 -19 3 -46 7 -60 10 -49 10 -171 13 -176 5 -7 -12 -61 -11 -69 1 -6 9 -43 8 -190 -5 -86 -7 -231 -15 -265 -14 -34 1 -94 -4 -195 -15 -123 -15 -197 -17 -210 -6 -9 7 -26 9 -45 5 -16 -4 -30 -2 -30 3 0 8 -87 27 -180 39 -25 3 -49 9 -55 13 -10 7 -74 23 -105 25 -8 1 -23 5 -33 9 -9 5 -28 6 -42 4 -13 -3 -26 -1 -27 4 -4 12 -258 19 -278 8z m156 -110 c5 -5 34 -10 64 -11 30 -1 60 -6 67 -11 6 -5 31 -9 55 -10 24 0 48 -5 55 -10 7 -5 17 -7 23 -3 6 4 17 1 25 -5 9 -8 28 -10 47 -6 21 4 39 1 55 -10 14 -8 37 -14 52 -12 16 1 35 -2 42 -8 17 -13 108 -34 167 -38 30 -2 42 0 42 10 0 14 41 20 100 16 14 -1 32 1 40 4 14 6 79 12 184 17 28 1 51 8 54 15 3 9 9 9 24 1 13 -7 41 -9 72 -5 66 8 168 17 181 16 59 -6 147 -5 151 1 7 12 61 11 69 -1 4 -6 28 -10 53 -9 26 0 76 -5 112 -11 36 -6 81 -13 100 -15 61 -7 74 -11 98 -26 12 -7 22 -21 22 -29 -1 -25 -94 -203 -110 -211 -8 -4 -22 -10 -30 -13 -8 -3 -23 -10 -32 -16 -69 -39 -102 -54 -180 -81 -38 -13 -68 -27 -68 -31 0 -5 -8 -8 -18 -8 -9 0 -49 -12 -87 -26 -39 -15 -78 -27 -87 -28 -10 -1 -21 -5 -24 -9 -4 -4 -18 -7 -30 -7 -13 0 -25 -4 -29 -9 -3 -6 -13 -10 -23 -9 -9 0 -28 -3 -42 -6 -14 -4 -52 -11 -84 -17 -33 -5 -63 -12 -66 -14 -4 -3 -50 -10 -101 -16 -212 -26 -322 -18 -411 27 -37 19 -53 22 -67 14 -15 -7 -24 -6 -36 6 -14 15 -40 22 -180 54 -27 6 -58 15 -67 20 -10 6 -26 10 -37 10 -10 0 -24 7 -31 15 -7 8 -20 15 -29 15 -9 0 -29 7 -44 15 -15 8 -43 17 -63 21 -19 3 -37 10 -40 15 -3 5 -15 9 -27 9 -12 0 -31 7 -41 15 -11 8 -27 15 -36 15 -8 0 -25 10 -37 23 -12 12 -37 38 -56 57 -18 19 -39 50 -47 68 -7 17 -16 32 -20 32 -3 0 -13 12 -21 28 -7 15 -28 45 -45 67 -40 50 -32 59 56 69 35 4 82 16 103 27 22 10 49 16 61 14 12 -3 48 -1 81 4 33 5 65 9 71 10 5 0 14 -3 20 -9z"/>
<path d="M9110 8541 c0 -13 54 -57 90 -72 23 -10 30 -19 26 -33 -7 -29 31 -95 62 -107 15 -6 39 -25 55 -44 16 -19 41 -36 60 -40 17 -4 44 -16 59 -26 14 -11 43 -19 65 -20 21 0 47 -4 58 -8 11 -4 37 -4 59 1 25 6 50 5 72 -2 54 -18 122 -3 161 36 19 19 44 34 56 34 28 0 47 17 47 42 0 10 11 25 25 34 14 9 25 23 25 30 0 8 9 14 19 14 26 0 135 28 174 45 l32 14 -50 0 c-27 0 -104 -6 -170 -14 -115 -13 -382 -15 -450 -2 -16 4 -61 11 -100 18 -86 14 -273 66 -300 83 -27 18 -75 28 -75 17z"/>
<path d="M9770 7846 c0 -2 9 -6 20 -9 11 -3 18 -1 14 4 -5 9 -34 13 -34 5z"/>
<path d="M9856 7831 c-3 -5 7 -11 23 -14 16 -3 41 -9 56 -13 20 -5 26 -4 21 5 -4 6 -18 11 -32 11 -14 0 -34 5 -44 10 -11 6 -21 6 -24 1z"/>
<path d="M9970 7803 c0 -9 101 -34 109 -27 5 4 -35 19 -76 29 -18 3 -33 3 -33 -2z"/>
<path d="M10114 7765 c22 -17 40 -20 32 -6 -3 5 -16 11 -28 14 -22 6 -22 5 -4 -8z"/>
</g>
</svg>